/* XPM */
static char *_09f1c20811e4958e8a37d09a61fefeeiDRX5s1vmzpg5e3j[] = {
/* columns rows colors chars-per-pixel */
"16 16 9 1 ",
"  c #343E50",
". c #353E50",
"X c #434E65",
"o c #424F65",
"O c #434F65",
"+ c #5B6988",
"@ c #5A6989",
"# c #6E7F9F",
"$ c #6F7F9F",
/* pixels */
"X.......O... .. ",
"X#####$$X#######",
"X#+++++#O#+++++$",
".  .O....   O ..",
"####O###$$$#O#$$",
"+++#O$+++++#O#++",
"++++OO++++++X+++",
"X.  ..  O.    ..",
"O###$$##O####$$$",
"O#+++++#O#+++++$",
"O++O++++O+++++++",
"    O.      O ..",
"####o#######O###",
"+++#O#+++++#O#++",
"++++o+++++++O+++",
"OOOOooOOOOooOOOO"
};
