/* XPM */
static char *e224a7464bc94a38e3ded203afdda48fjJAJbaixgxrNnP09[] = {
/* columns rows colors chars-per-pixel */
"16 16 3 1 ",
"  c #4C3940",
". c #4C3941",
"X c #514047",
/* pixels */
"XXXX  XXX  XXXXX",
"XXXXXXXXX  XXXXX",
"XXXXXXXXXXXXXXXX",
"XXXXXXXXXXXXXXXX",
" XXXXXXXX XXXXXX",
" XXXXXXXXXXXXXXX",
"XXXXXXXXXXXXXXXX",
"XXXXXXXXXXXXX  X",
"X..XXXXXXXXXX  X",
"X..X..XXXXXXXXXX",
"XXXX..XXXXXXXXXX",
"XXXXXXXXXXXXXXXX",
"XX..XXXXXXXXXXXX",
"XX..XXXXXX.XX  X",
"XXXXXXXXXXXXX. X",
"XXXXXXXXXXXXXXXX"
};
